<svg width="840" height="210" viewBox="0 0 840 210" fill="none" xmlns="http://www.w3.org/2000/svg">
  <defs>
    <linearGradient id="ico" x1="0" y1="0" x2="80" y2="80">
      <stop offset="0%" stop-color="#58a6ff"/>
      <stop offset="100%" stop-color="#bc8cff"/>
    </linearGradient>
  </defs>
  <rect width="840" height="210" rx="12" fill="#0d1117"/>
  <rect width="840" height="210" rx="12" stroke="#30363d" stroke-width="1" fill="none"/>

  <!-- Gemini node -->
  <g transform="translate(64, 38)">
    <rect x="-40" y="-18" width="80" height="36" rx="10" fill="#0d1117" stroke="#4285f4" stroke-width="2"/>
    <text x="0" y="5" text-anchor="middle" fill="#4285f4" font-size="14" font-weight="600" font-family="system-ui, sans-serif">Gemini</text>
  </g>
  <!-- Claude node -->
  <g transform="translate(64, 105)">
    <rect x="-40" y="-18" width="80" height="36" rx="10" fill="#0d1117" stroke="#d4a574" stroke-width="2"/>
    <text x="0" y="5" text-anchor="middle" fill="#d4a574" font-size="14" font-weight="600" font-family="system-ui, sans-serif">Claude</text>
  </g>
  <!-- Codex node -->
  <g transform="translate(64, 172)">
    <rect x="-40" y="-18" width="80" height="36" rx="10" fill="#0d1117" stroke="#10a37f" stroke-width="2"/>
    <text x="0" y="5" text-anchor="middle" fill="#10a37f" font-size="14" font-weight="600" font-family="system-ui, sans-serif">Codex</text>
  </g>

  <!-- Connection lines -->
  <path d="M104 38 C160 38 180 105 230 105" stroke="#4285f4" stroke-width="2" fill="none" opacity="0.4" stroke-dasharray="6 4"/>
  <path d="M104 105 C160 105 190 105 230 105" stroke="#d4a574" stroke-width="2" fill="none" opacity="0.4" stroke-dasharray="6 4"/>
  <path d="M104 172 C160 172 180 105 230 105" stroke="#10a37f" stroke-width="2" fill="none" opacity="0.4" stroke-dasharray="6 4"/>

  <!-- CENTER ICON: A3 Happy Eyes -->
  <g transform="translate(270, 105)">
    <circle r="38" fill="#0d1117" stroke="url(#ico)" stroke-width="2.5"/>
    <rect x="-20" y="-14" width="40" height="30" rx="8" fill="url(#ico)" opacity="0.1"/>
    <rect x="-20" y="-14" width="40" height="30" rx="8" stroke="url(#ico)" stroke-width="1.5" fill="none"/>
    <path d="M-15 -3 Q-10 -9 -5 -3" stroke="#58a6ff" stroke-width="2.5" fill="none" stroke-linecap="round"/>
    <path d="M5 -3 Q10 -9 15 -3" stroke="#58a6ff" stroke-width="2.5" fill="none" stroke-linecap="round"/>
    <path d="M-13 7 Q0 16 13 7" stroke="#58a6ff" stroke-width="2" fill="none" stroke-linecap="round"/>
    <line x1="0" y1="-14" x2="0" y2="-23" stroke="url(#ico)" stroke-width="2" stroke-linecap="round"/>
    <circle cx="0" cy="-26" r="3" fill="#58a6ff"/>
  </g>

  <!-- Arrow right -->
  <path d="M308 105 L370 105" stroke="url(#ico)" stroke-width="2" opacity="0.3" stroke-dasharray="6 4"/>

  <!-- Title -->
  <text x="385" y="55" fill="#e6edf3" font-size="32" font-weight="700" font-family="system-ui, -apple-system, sans-serif">Avatar Engine</text>
  <text x="385" y="79" fill="#8b949e" font-size="14" font-family="system-ui, -apple-system, sans-serif">AI assistant integration library for Python</text>

  <!-- Tags -->
  <g transform="translate(385, 95)">
    <rect x="0" y="0" width="80" height="20" rx="4" fill="#238636" opacity="0.2"/>
    <text x="40" y="14" text-anchor="middle" fill="#7ee787" font-size="10" font-family="system-ui, sans-serif">ACP Sessions</text>

    <rect x="88" y="0" width="92" height="20" rx="4" fill="#1f6feb" opacity="0.2"/>
    <text x="134" y="14" text-anchor="middle" fill="#79c0ff" font-size="10" font-family="system-ui, sans-serif">Zero Footprint</text>

    <rect x="188" y="0" width="70" height="20" rx="4" fill="#6e40c9" opacity="0.2"/>
    <text x="223" y="14" text-anchor="middle" fill="#bc8cff" font-size="10" font-family="system-ui, sans-serif">MCP Tools</text>

    <rect x="266" y="0" width="76" height="20" rx="4" fill="#f0883e" opacity="0.15"/>
    <text x="304" y="14" text-anchor="middle" fill="#f0883e" font-size="10" font-family="system-ui, sans-serif">Event-Driven</text>

    <rect x="350" y="0" width="72" height="20" rx="4" fill="#58a6ff" opacity="0.15"/>
    <text x="386" y="14" text-anchor="middle" fill="#58a6ff" font-size="10" font-family="system-ui, sans-serif">Streaming</text>
  </g>

  <!-- pip install box -->
  <g transform="translate(385, 133)">
    <rect x="0" y="0" width="220" height="28" rx="6" fill="#161b22" stroke="#30363d" stroke-width="1"/>
    <text x="12" y="19" fill="#7ee787" font-size="13" font-family="'Courier New', Consolas, monospace">pip install avatar-engine</text>
  </g>

  <!-- Provider badges -->
  <g transform="translate(385, 172)">
    <rect x="0" y="0" width="55" height="18" rx="4" fill="#4285f4" opacity="0.15"/>
    <text x="27" y="13" text-anchor="middle" fill="#4285f4" font-size="9" font-family="system-ui, sans-serif">Gemini</text>

    <rect x="61" y="0" width="52" height="18" rx="4" fill="#d4a574" opacity="0.15"/>
    <text x="87" y="13" text-anchor="middle" fill="#d4a574" font-size="9" font-family="system-ui, sans-serif">Claude</text>

    <rect x="119" y="0" width="50" height="18" rx="4" fill="#10a37f" opacity="0.15"/>
    <text x="144" y="13" text-anchor="middle" fill="#10a37f" font-size="9" font-family="system-ui, sans-serif">Codex</text>
  </g>

  <!-- Footer -->
  <text x="385" y="205" fill="#484f58" font-size="11" font-family="system-ui, sans-serif">Python 3.10+  ·  asyncio  ·  Apache 2.0</text>
</svg>
